<svg width="20" height="18" viewBox="0 0 20 18" fill="none" xmlns="http://www.w3.org/2000/svg">
<path d="M15.9267 7.75C15.7938 7.75 15.3489 7.75391 15.2235 7.76172L12.6884 7.82812C12.6752 7.82893 12.6621 7.82608 12.6504 7.81987C12.6388 7.81366 12.629 7.80435 12.6224 7.79297L7.56065 1.63906C7.52995 1.59842 7.49078 1.56494 7.44586 1.54092C7.40094 1.51691 7.35134 1.50295 7.30049 1.5H6.2501L9.10166 7.78906C9.10846 7.80346 9.1114 7.81938 9.11019 7.83525C9.10898 7.85113 9.10367 7.86642 9.09476 7.87962C9.08586 7.89281 9.07367 7.90347 9.0594 7.91054C9.04514 7.9176 9.02928 7.92084 9.01338 7.91992L4.25987 7.99023C4.2104 7.99173 4.16128 7.98155 4.11648 7.96051C4.07169 7.93947 4.03249 7.90817 4.00205 7.86914L2.55674 6.11133C2.43955 5.95898 2.22002 5.87695 2.02901 5.87695H1.29229C1.2419 5.87695 1.24932 5.92422 1.26299 5.97187L2.03799 8.76172C2.09657 8.91113 2.09657 9.07715 2.03799 9.22656L1.26221 12.0078C1.23916 12.084 1.2419 12.125 1.33135 12.125H2.03135C2.34932 12.125 2.39268 12.0836 2.55518 11.8789L4.02783 10.0938C4.05854 10.055 4.09779 10.0239 4.14252 10.0029C4.18725 9.98192 4.23624 9.97156 4.28565 9.97266L8.99971 10.0781C9.01687 10.0785 9.03368 10.0831 9.04868 10.0915C9.06367 10.0998 9.0764 10.1117 9.08575 10.1261C9.09511 10.1405 9.1008 10.157 9.10235 10.1741C9.1039 10.1912 9.10125 10.2084 9.09463 10.2242L6.2501 16.5H7.29072C7.34147 16.497 7.39098 16.4831 7.43583 16.4592C7.48067 16.4352 7.51979 16.4018 7.55049 16.3613L12.6228 10.2109C12.638 10.1875 12.7009 10.1758 12.7278 10.1758L15.2239 10.2422C15.3528 10.25 15.7938 10.2539 15.9271 10.2539C17.6563 10.2539 18.7501 9.77852 18.7501 9C18.7501 8.22148 17.661 7.75 15.9267 7.75Z" stroke="black" stroke-width="1.2" stroke-linecap="round" stroke-linejoin="round"/>
</svg>
