<svg width="20" height="20" viewBox="0 0 20 20" fill="none" xmlns="http://www.w3.org/2000/svg">
<path d="M11.7259 6.32167L11.0359 7.01167C10.8811 7.16654 10.6973 7.28939 10.4949 7.37318C10.2926 7.45697 10.0757 7.50006 9.85675 7.5H8.67841C8.36591 7.5 8.06591 7.62417 7.84508 7.845C7.73563 7.95442 7.6488 8.08434 7.58956 8.22732C7.53032 8.37031 7.49983 8.52356 7.49983 8.67833C7.49983 8.83311 7.53032 8.98636 7.58956 9.12935C7.6488 9.27233 7.73563 9.40224 7.84508 9.51167L9.36925 11.0358C9.68179 11.3483 10.1056 11.5238 10.5476 11.5238C10.9895 11.5238 11.4134 11.3483 11.7259 11.0358L12.9042 9.85667L13.7076 11.6242C13.7825 11.7893 13.8964 11.9338 14.0394 12.0453C14.1825 12.1568 14.3504 12.2319 14.5288 12.2643C14.7073 12.2967 14.8909 12.2853 15.064 12.2311C15.2371 12.177 15.3944 12.0816 15.5226 11.9533C15.7326 11.7433 15.8509 11.4575 15.8509 11.16V7.60167C15.8509 7.38268 15.8939 7.16582 15.9777 6.96349C16.0615 6.76116 16.1844 6.57733 16.3392 6.4225L18.2076 4.55334C18.6009 4.16167 19.1509 3.13917 18.2076 2.19667C17.2651 1.25417 16.2434 1.80417 15.8509 2.19667L14.3776 3.67M11.7259 6.32167L10.0426 5.76C9.84754 5.69492 9.67237 5.58108 9.53369 5.42929C9.395 5.2775 9.2974 5.09279 9.25015 4.89268C9.2029 4.69257 9.20757 4.48371 9.2637 4.28592C9.31984 4.08812 9.42559 3.90795 9.57091 3.7625V3.7625C9.6925 3.64089 9.83868 3.54668 9.99965 3.48617C10.1606 3.42567 10.3327 3.40026 10.5042 3.41167L14.3776 3.67M11.7259 6.32167L14.3776 3.67M1.66675 12.4208C2.25425 11.3925 3.18758 10.4875 4.16675 9.75084M1.66675 18.67C2.56008 16.1683 4.21258 14.0333 5.85258 12.42M6.25008 17.8367C6.85091 16.635 7.88341 15.2725 8.82258 14.1658" stroke="black" stroke-width="1.2" stroke-linecap="round" stroke-linejoin="round"/>
</svg>
