<svg width="16" height="16" viewBox="0 0 16 16" fill="none" xmlns="http://www.w3.org/2000/svg">
<path d="M11.439 4.56251C11.1791 4.30245 11.0268 3.95384 11.0128 3.58639C10.9988 3.21894 11.124 2.85974 11.3634 2.58063C11.3832 2.55742 11.3935 2.52758 11.3922 2.49709C11.3909 2.46661 11.3782 2.43773 11.3565 2.41626L9.97746 1.03563C9.95467 1.01285 9.92375 1.00005 9.89152 1.00005C9.85929 1.00005 9.82838 1.01285 9.80559 1.03563L7.60746 3.23376C7.52636 3.31484 7.46526 3.4137 7.42902 3.52251C7.39292 3.63156 7.3319 3.7307 7.2508 3.81207C7.16971 3.89344 7.07077 3.95479 6.96184 3.99126C6.85296 4.02754 6.754 4.08862 6.67277 4.16969L1.03558 9.80563C1.0128 9.82843 1 9.85934 1 9.89157C1 9.9238 1.0128 9.95471 1.03558 9.97751L2.41465 11.3566C2.43613 11.3782 2.465 11.391 2.49549 11.3923C2.52597 11.3935 2.55581 11.3832 2.57902 11.3634C2.85808 11.1238 3.21735 10.9984 3.58493 11.0123C3.9525 11.0263 4.30125 11.1785 4.56135 11.4386C4.82145 11.6987 4.97371 12.0475 4.98765 12.415C5.00159 12.7826 4.87618 13.1419 4.63652 13.4209C4.61672 13.4442 4.60643 13.474 4.6077 13.5045C4.60898 13.535 4.62173 13.5638 4.6434 13.5853L6.02246 14.9644C6.04526 14.9872 6.07617 15 6.1084 15C6.14063 15 6.17154 14.9872 6.19434 14.9644L11.8318 9.32719C11.9129 9.24597 11.974 9.14701 12.0103 9.03813C12.0464 8.92908 12.1074 8.82993 12.1885 8.74857C12.2696 8.6672 12.3685 8.60585 12.4775 8.56938C12.5863 8.53314 12.6851 8.47205 12.7662 8.39094L14.9643 6.19282C14.9871 6.17002 14.9999 6.13911 14.9999 6.10688C14.9999 6.07465 14.9871 6.04374 14.9643 6.02094L13.5853 4.64188C13.5638 4.62021 13.5349 4.60746 13.5044 4.60619C13.474 4.60491 13.4441 4.61521 13.4209 4.63501C13.1422 4.87481 12.7832 5.00056 12.4158 4.98712C12.0483 4.97368 11.6995 4.82203 11.439 4.56251V4.56251Z" stroke="#449328" stroke-width="1.25" stroke-miterlimit="10"/>
</svg>
