<svg width="16" height="16" viewBox="0 0 16 16" fill="none" xmlns="http://www.w3.org/2000/svg">
<path d="M12.75 9.5C11.7539 9.50095 10.7785 9.78491 9.93757 10.3188C9.09661 10.8527 8.42466 11.6146 8 12.5156C7.57534 11.6146 6.90339 10.8527 6.06243 10.3188C5.22147 9.78491 4.24612 9.50095 3.25 9.5H0.5V10C0.5 12.8949 2.85512 15.25 5.75 15.25H10.25C13.1449 15.25 15.5 12.8949 15.5 10V9.5H12.75ZM5.75 14.25C3.57559 14.25 1.77737 12.6088 1.52925 10.5H3.25C5.42441 10.5 7.22262 12.1412 7.47075 14.25H5.75ZM10.25 14.25H8.52925C8.77738 12.1412 10.5756 10.5 12.75 10.5H14.4707C14.2226 12.6088 12.4244 14.25 10.25 14.25Z" fill="#10131D"/>
<path d="M5.28817 8.21173C5.38274 8.77401 5.65098 9.29257 6.05526 9.69463L6.20173 9.84107H6.40883C6.979 9.84266 7.53537 9.66567 7.99983 9.33495C8.46427 9.66571 9.02064 9.84274 9.59083 9.8412H9.79792L9.94439 9.69476C10.3487 9.29269 10.6169 8.77413 10.7115 8.21185C11.2738 8.11728 11.7923 7.84904 12.1944 7.44476L12.3408 7.29829V7.0912C12.3424 6.52098 12.1655 5.96457 11.8347 5.50007C12.1655 5.03562 12.3425 4.47926 12.341 3.90907V3.70198L12.1945 3.55551C11.7924 3.15123 11.2739 2.88298 10.7116 2.78841C10.617 2.22613 10.3488 1.70758 9.94451 1.30551L9.79805 1.15907H9.59095C9.02073 1.15746 8.46432 1.33445 7.99983 1.6652C7.53538 1.33443 6.97902 1.15739 6.40883 1.15895H6.20173L6.05526 1.30538C5.65098 1.70745 5.38274 2.22601 5.28817 2.78829C4.72589 2.88286 4.20733 3.1511 3.80526 3.55538L3.65883 3.70185V3.90895C3.65722 4.47916 3.83421 5.03557 4.16495 5.50007C3.83418 5.96452 3.65715 6.52088 3.6587 7.09107V7.29816L3.80514 7.44463C4.20724 7.84894 4.72585 8.11718 5.28817 8.21173ZM5.17142 5.14654C4.89412 4.8709 4.71795 4.50975 4.67142 4.12154C4.97881 3.87983 5.35879 3.74895 5.74983 3.75007H6.24983V3.25007C6.2487 2.85907 6.37955 2.47914 6.6212 2.17176C7.00941 2.21828 7.37057 2.39445 7.6462 2.67176L7.99983 3.02507L8.35336 2.67154C8.62899 2.39424 8.99015 2.21807 9.37836 2.17154C9.62009 2.47897 9.75098 2.85899 9.74983 3.25007V3.75007H10.2498C10.6408 3.74894 11.0208 3.87979 11.3281 4.12145C11.2816 4.50966 11.1054 4.87081 10.8281 5.14645L10.4748 5.50007L10.8284 5.85363C11.1057 6.12927 11.2819 6.49042 11.3284 6.87863C11.0209 7.12036 10.6409 7.25124 10.2498 7.25007H9.74983V7.75007C9.75095 8.14107 9.6201 8.521 9.37845 8.82838C8.99024 8.78186 8.62909 8.60569 8.35345 8.32838L7.99983 7.97507L7.64626 8.32851C7.37063 8.60581 7.00948 8.78198 6.62126 8.82851C6.37956 8.5211 6.24869 8.14112 6.24983 7.75007V7.25007H5.74983C5.35883 7.2512 4.9789 7.12035 4.67151 6.8787C4.71804 6.49048 4.89421 6.12933 5.17151 5.8537L5.52483 5.50007L5.17142 5.14654Z" fill="#10131D"/>
</svg>
