<svg width="10" height="12" viewBox="0 0 10 12" fill="none" xmlns="http://www.w3.org/2000/svg">
<path d="M4.66576 12C3.82388 11.2819 3.04354 10.4946 2.33288 9.64646C1.26642 8.37271 5.85815e-07 6.47574 5.85815e-07 4.6681C-0.000461923 3.74492 0.272953 2.84235 0.785643 2.07462C1.29833 1.30689 2.02725 0.708507 2.88015 0.355202C3.73305 0.00189744 4.67159 -0.0904489 5.57699 0.0898503C6.48239 0.270149 7.31396 0.714989 7.96645 1.36807C8.40087 1.80056 8.7452 2.31491 8.97951 2.88136C9.21382 3.44781 9.33347 4.0551 9.33152 4.6681C9.33152 6.47574 8.0651 8.37271 6.99864 9.64646C6.28798 10.4946 5.50763 11.2819 4.66576 12ZM4.66576 2.66849C4.13543 2.66849 3.62682 2.87916 3.25182 3.25416C2.87682 3.62916 2.66615 4.13777 2.66615 4.6681C2.66615 5.19843 2.87682 5.70704 3.25182 6.08203C3.62682 6.45703 4.13543 6.66771 4.66576 6.66771C5.19609 6.66771 5.7047 6.45703 6.0797 6.08203C6.4547 5.70704 6.66537 5.19843 6.66537 4.6681C6.66537 4.13777 6.4547 3.62916 6.0797 3.25416C5.7047 2.87916 5.19609 2.66849 4.66576 2.66849Z" fill="#10131D"/>
</svg>
