<svg width="16" height="16" viewBox="0 0 16 16" fill="none" xmlns="http://www.w3.org/2000/svg">
<path d="M4.00016 9.33325H5.3335L7.3335 11.3333H6.00016L4.00016 9.33325ZM2.66683 2.66659H3.3335V1.99992C3.3335 1.82311 3.40373 1.65354 3.52876 1.52851C3.65378 1.40349 3.82335 1.33325 4.00016 1.33325H6.66683C6.84364 1.33325 7.01321 1.40349 7.13823 1.52851C7.26326 1.65354 7.3335 1.82311 7.3335 1.99992V2.66659H8.66683V1.99992C8.66683 1.82311 8.73707 1.65354 8.86209 1.52851C8.98712 1.40349 9.15668 1.33325 9.3335 1.33325H12.0002C12.177 1.33325 12.3465 1.40349 12.4716 1.52851C12.5966 1.65354 12.6668 1.82311 12.6668 1.99992V2.66659H13.3335C13.6871 2.66659 14.0263 2.80706 14.2763 3.05711C14.5264 3.30716 14.6668 3.6463 14.6668 3.99992V12.6666C14.6668 13.0202 14.5264 13.3593 14.2763 13.6094C14.0263 13.8594 13.6871 13.9999 13.3335 13.9999V14.6666H11.3335V13.9999H4.66683V14.6666H2.66683V13.9999C2.31321 13.9999 1.97407 13.8594 1.72402 13.6094C1.47397 13.3593 1.3335 13.0202 1.3335 12.6666V3.99992C1.3335 3.6463 1.47397 3.30716 1.72402 3.05711C1.97407 2.80706 2.31321 2.66659 2.66683 2.66659ZM12.0002 4.66658C12.177 4.66658 12.3465 4.73682 12.4716 4.86185C12.5966 4.98687 12.6668 5.15644 12.6668 5.33325C12.6668 5.51006 12.5966 5.67963 12.4716 5.80466C12.3465 5.92968 12.177 5.99992 12.0002 5.99992C11.8234 5.99992 11.6538 5.92968 11.5288 5.80466C11.4037 5.67963 11.3335 5.51006 11.3335 5.33325C11.3335 5.15644 11.4037 4.98687 11.5288 4.86185C11.6538 4.73682 11.8234 4.66658 12.0002 4.66658ZM9.3335 4.66658C9.51031 4.66658 9.67988 4.73682 9.8049 4.86185C9.92992 4.98687 10.0002 5.15644 10.0002 5.33325C10.0002 5.51006 9.92992 5.67963 9.8049 5.80466C9.67988 5.92968 9.51031 5.99992 9.3335 5.99992C9.15668 5.99992 8.98712 5.92968 8.86209 5.80466C8.73707 5.67963 8.66683 5.51006 8.66683 5.33325C8.66683 5.15644 8.73707 4.98687 8.86209 4.86185C8.98712 4.73682 9.15668 4.66658 9.3335 4.66658ZM13.3335 3.99992H2.66683V6.66658H13.3335V3.99992ZM2.66683 12.6666H13.3335V7.99992H2.66683V12.6666ZM4.00016 4.66658C4.17697 4.66658 4.34654 4.73682 4.47157 4.86185C4.59659 4.98687 4.66683 5.15644 4.66683 5.33325C4.66683 5.51006 4.59659 5.67963 4.47157 5.80466C4.34654 5.92968 4.17697 5.99992 4.00016 5.99992C3.82335 5.99992 3.65378 5.92968 3.52876 5.80466C3.40373 5.67963 3.3335 5.51006 3.3335 5.33325C3.3335 5.15644 3.40373 4.98687 3.52876 4.86185C3.65378 4.73682 3.82335 4.66658 4.00016 4.66658ZM8.66683 9.33325H10.0002L12.0002 11.3333H10.6668L8.66683 9.33325Z" fill="#10131D"/>
</svg>
