<svg width="43" height="24" viewBox="0 0 43 24" fill="none" xmlns="http://www.w3.org/2000/svg">
<rect x="0.5" y="0.5" width="42" height="23" stroke="#E1E1E1"/>
<path d="M29.751 9.40963C29.2757 8.9462 28.6281 8.71102 27.8089 8.71102C26.7549 8.71102 25.9629 9.12307 25.4392 9.93927L26.4176 10.5944C26.7757 10.0345 27.2647 9.75449 27.8844 9.75449C28.279 9.7555 28.6592 9.9102 28.9519 10.1888C29.0946 10.3192 29.209 10.4803 29.2874 10.6613C29.3658 10.8422 29.4065 11.0388 29.4066 11.2377V11.5099C28.9796 11.2594 28.4423 11.127 27.7812 11.127C27.0097 11.127 26.3899 11.3187 25.9281 11.7085C25.4664 12.0984 25.2327 12.6132 25.2327 13.2678C25.2255 13.5604 25.2805 13.8509 25.3937 14.1183C25.5069 14.3856 25.6754 14.6229 25.8869 14.8128C26.3209 15.2248 26.8723 15.4308 27.5193 15.4308C28.2837 15.4308 28.89 15.0702 29.3494 14.3493H29.3963V15.2248H30.4572V11.3365C30.4605 10.5188 30.2264 9.87109 29.751 9.40963ZM28.8487 13.8217C28.686 13.996 28.4919 14.1345 28.2779 14.2292C28.0639 14.3238 27.8341 14.3727 27.6019 14.373C27.2898 14.3785 26.9857 14.2693 26.7418 14.0642C26.628 13.9744 26.5357 13.8578 26.4724 13.7237C26.4091 13.5896 26.3765 13.4418 26.3772 13.292C26.3772 12.9462 26.5283 12.6591 26.8249 12.4314C27.1214 12.2036 27.5067 12.0855 27.9543 12.0855C28.5718 12.0776 29.0552 12.2258 29.3996 12.5193C29.3996 13.0198 29.2138 13.4536 28.8487 13.8217ZM24.4543 6.80589C24.2053 6.54378 23.9085 6.33734 23.5819 6.19896C23.2552 6.06057 22.9054 5.99309 22.5534 6.00056H19.6127V15.2268H20.7215V11.4897H22.5515C23.3023 11.4897 23.9358 11.2248 24.4524 10.7026C24.4937 10.6586 24.535 10.6142 24.5767 10.5702C25.0289 10.0506 25.2694 9.365 25.2465 8.6607C25.2236 7.95641 24.9391 7.28971 24.4543 6.80391V6.80589ZM23.6763 9.88048C23.5365 10.0376 23.3665 10.1615 23.1777 10.244C22.9888 10.3264 22.7854 10.3656 22.5811 10.3587H20.7215V7.13692H22.5811C22.9779 7.1354 23.3592 7.29936 23.6416 7.59294C23.9288 7.89416 24.0932 8.30148 24.0997 8.7283C24.1061 9.15512 23.9542 9.56776 23.6763 9.8785V9.88048ZM35.3434 8.91556L33.6288 13.4462H33.6077L31.8518 8.91556H30.6463L33.0765 14.8222L31.6993 18H32.8419L36.5489 8.91556H35.3434Z" fill="#10131D"/>
<path d="M16.4308 10.2379H16.0276V10.2161H11.5229V12.3241H14.3516C13.9389 13.5512 12.83 14.4321 11.5229 14.4321C9.86443 14.4321 8.51978 13.0163 8.51978 11.2701C8.51978 9.52383 9.86443 8.10803 11.5229 8.10803C12.2885 8.10803 12.9849 8.41211 13.5152 8.90881L14.931 7.41817C14.037 6.54097 12.8413 6 11.5229 6C8.75878 6 6.5177 8.35967 6.5177 11.2701C6.5177 14.1805 8.75878 16.5401 11.5229 16.5401C14.287 16.5401 16.5281 14.1805 16.5281 11.2701C16.5281 10.9167 16.4936 10.5718 16.4308 10.2379Z" fill="#FFC107"/>
<path d="M7.09473 8.81711L8.73919 10.0869C9.18415 8.92699 10.2618 8.10803 11.5228 8.10803C12.2884 8.10803 12.9849 8.41211 13.5152 8.90881L14.9309 7.41817C14.037 6.54097 12.8412 6 11.5228 6C9.60033 6 7.9331 7.14281 7.09473 8.81711Z" fill="#FF3D00"/>
<path d="M11.523 16.5402C12.8159 16.5402 13.9906 16.0193 14.8788 15.1721L13.3297 13.7919C12.8103 14.2078 12.1756 14.4327 11.523 14.4322C10.2212 14.4322 9.11577 13.5581 8.69934 12.3384L7.06714 13.6625C7.8955 15.3692 9.57775 16.5402 11.523 16.5402Z" fill="#4CAF50"/>
<path d="M16.4308 10.2372H16.0276V10.2153H11.5229V12.3234H14.3516C14.1542 12.9074 13.7987 13.4177 13.3288 13.7913L13.3296 13.7908L14.8787 15.171C14.7691 15.2759 16.5282 13.9044 16.5282 11.2693C16.5282 10.916 16.4936 10.5711 16.4308 10.2372Z" fill="#1976D2"/>
</svg>
