<svg width="48" height="24" viewBox="0 0 48 24" fill="none" xmlns="http://www.w3.org/2000/svg">
<rect x="0.5" y="0.5" width="47" height="23" stroke="#E1E1E1"/>
<path d="M24.1195 10.1969C24.1021 11.5899 25.3434 12.3673 26.2785 12.8295C27.2392 13.3036 27.562 13.6078 27.5581 14.0319C27.551 14.6808 26.7918 14.9673 26.0814 14.9784C24.8419 14.9979 24.1213 14.639 23.5484 14.3675L23.1019 16.4867C23.6767 16.7554 24.741 16.9897 25.8448 17C28.4356 17 30.1306 15.7028 30.1398 13.6915C30.15 11.1388 26.6589 10.9976 26.6828 9.85661C26.691 9.51064 27.0165 9.14146 27.7296 9.04759C28.0826 9.00017 29.0571 8.96388 30.1619 9.47992L30.5955 7.42955C30.0014 7.21012 29.2378 7 28.287 7C25.8485 7 24.1333 8.3149 24.1195 10.1969ZM34.7621 7.17661C34.289 7.17661 33.8903 7.45652 33.7124 7.88607L30.0115 16.8494H32.6004L33.1156 15.4052H36.2793L36.5781 16.8494H38.86L36.8688 7.17661H34.7621ZM35.1243 9.78959L35.8714 13.4218H33.8252L35.1243 9.78959ZM20.9805 7.17673L18.9398 16.8493H21.4069L23.4466 7.17649H20.9805M17.3309 7.17649L14.763 13.7603L13.7243 8.16236C13.6024 7.53745 13.1211 7.17661 12.5866 7.17661H8.38899L8.3302 7.45749C9.19195 7.64717 10.1711 7.95309 10.7642 8.28042C11.1273 8.48038 11.2308 8.65518 11.35 9.13033L13.3174 16.8494H15.9245L19.9215 7.17661H17.3309" fill="url(#paint0_linear_150_367)"/>
<defs>
<linearGradient id="paint0_linear_150_367" x1="22.366" y1="17.2006" x2="22.6596" y2="6.93069" gradientUnits="userSpaceOnUse">
<stop stop-color="#222357"/>
<stop offset="1" stop-color="#254AA5"/>
</linearGradient>
</defs>
</svg>
