<svg width="20" height="20" viewBox="0 0 20 20" fill="none" xmlns="http://www.w3.org/2000/svg">
<path d="M13 9.9999C13 10.7956 12.6839 11.5586 12.1213 12.1212C11.5587 12.6838 10.7956 12.9999 9.99999 12.9999C9.20434 12.9999 8.44128 12.6838 7.87867 12.1212C7.31606 11.5586 6.99999 10.7956 6.99999 9.9999C6.99999 9.8289 7.01799 9.6619 7.04899 9.4999H5.99999V13.4969C5.99999 13.7749 6.22499 13.9999 6.50299 13.9999H13.498C13.6312 13.9996 13.7589 13.9465 13.853 13.8522C13.9471 13.7579 14 13.6301 14 13.4969V9.4999H12.951C12.982 9.6619 13 9.8289 13 9.9999ZM9.99999 11.9999C10.2627 11.9998 10.5228 11.948 10.7655 11.8474C11.0082 11.7468 11.2287 11.5994 11.4144 11.4136C11.6001 11.2278 11.7474 11.0072 11.8479 10.7645C11.9484 10.5218 12.0001 10.2616 12 9.9989C11.9999 9.73619 11.9481 9.47607 11.8475 9.23338C11.7469 8.9907 11.5995 8.7702 11.4137 8.58448C11.2279 8.39877 11.0073 8.25146 10.7646 8.15099C10.5219 8.05052 10.2617 7.99884 9.99899 7.9989C9.46843 7.99903 8.95965 8.20993 8.58457 8.58519C8.2095 8.96045 7.99886 9.46934 7.99899 9.9999C7.99913 10.5305 8.21002 11.0393 8.58528 11.4143C8.96054 11.7894 9.46943 12 9.99999 11.9999ZM12.4 7.8999H13.599C13.6787 7.8999 13.7551 7.86833 13.8115 7.8121C13.8679 7.75586 13.8997 7.67956 13.9 7.5999V6.4009C13.9 6.32107 13.8683 6.24451 13.8118 6.18806C13.7554 6.13161 13.6788 6.0999 13.599 6.0999H12.4C12.3202 6.0999 12.2436 6.13161 12.1872 6.18806C12.1307 6.24451 12.099 6.32107 12.099 6.4009V7.5999C12.1 7.7649 12.235 7.8999 12.4 7.8999ZM9.99999 0.399902C7.45392 0.399902 5.01212 1.41133 3.21177 3.21168C1.41142 5.01203 0.399994 7.45382 0.399994 9.9999C0.399994 12.546 1.41142 14.9878 3.21177 16.7881C5.01212 18.5885 7.45392 19.5999 9.99999 19.5999C11.2607 19.5999 12.509 19.3516 13.6738 18.8691C14.8385 18.3867 15.8968 17.6796 16.7882 16.7881C17.6797 15.8967 18.3868 14.8384 18.8692 13.6737C19.3517 12.5089 19.6 11.2606 19.6 9.9999C19.6 8.73921 19.3517 7.49087 18.8692 6.32614C18.3868 5.16142 17.6797 4.10312 16.7882 3.21168C15.8968 2.32023 14.8385 1.6131 13.6738 1.13066C12.509 0.648214 11.2607 0.399902 9.99999 0.399902ZM15 13.8889C15 14.4999 14.5 14.9999 13.889 14.9999H6.11099C5.49999 14.9999 4.99999 14.4999 4.99999 13.8889V6.1109C4.99999 5.4999 5.49999 4.9999 6.11099 4.9999H13.889C14.5 4.9999 15 5.4999 15 6.1109V13.8889Z" fill="#1A61B5"/>
</svg>
