<svg width="43" height="24" viewBox="0 0 43 24" fill="none" xmlns="http://www.w3.org/2000/svg">
<rect x="0.5" y="0.5" width="42" height="23" stroke="#E1E1E1"/>
<path d="M10.9431 7.58438C10.5911 8.00156 10.0281 8.32969 9.46496 8.28281C9.39458 7.72031 9.67143 7.12031 9.9952 6.75469C10.3471 6.32813 10.9618 6.02344 11.4639 6C11.5202 6.58125 11.2903 7.15781 10.9431 7.58438ZM11.4545 8.39062C10.6381 8.34375 9.9389 8.85469 9.55412 8.85469C9.15996 8.85469 8.56872 8.41406 7.92117 8.42813C7.08123 8.44219 6.3023 8.91563 5.87529 9.67031C4.99312 11.1844 5.64537 13.4203 6.49938 14.6531C6.917 15.2625 7.41439 15.9328 8.07133 15.9094C8.69541 15.8859 8.93942 15.5063 9.6902 15.5063C10.4457 15.5063 10.6662 15.9094 11.3231 15.9C12.0035 15.8859 12.4306 15.2906 12.8482 14.6812C13.3221 13.9875 13.5192 13.3172 13.5286 13.2797C13.5145 13.2656 12.2147 12.7688 12.2006 11.2688C12.1865 10.0125 13.2283 9.41719 13.2752 9.37969C12.6886 8.50781 11.7736 8.41406 11.4545 8.39062ZM16.1657 6.69375V15.8297H17.5875V12.7078H19.5536C21.3508 12.7078 22.6083 11.475 22.6083 9.69375C22.6083 7.9125 21.3695 6.69375 19.6005 6.69375H16.1657ZM17.5875 7.88906H19.2251C20.4592 7.88906 21.1631 8.54531 21.1631 9.69844C21.1631 10.8516 20.4592 11.5172 19.2204 11.5172H17.5875V7.88906ZM25.1985 15.9C26.0901 15.9 26.9159 15.45 27.2913 14.7328H27.3195V15.8297H28.6333V11.2828C28.6333 9.96562 27.5776 9.1125 25.954 9.1125C24.4477 9.1125 23.331 9.975 23.2887 11.1562H24.5697C24.6777 10.5938 25.1985 10.2234 25.9118 10.2234C26.7799 10.2234 27.2679 10.6266 27.2679 11.3719V11.8781L25.4941 11.9859C23.8471 12.0844 22.9556 12.7594 22.9556 13.9312C22.9603 15.1125 23.88 15.9 25.1985 15.9ZM25.5833 14.8172C24.8278 14.8172 24.3445 14.4516 24.3445 13.8984C24.3445 13.3219 24.8091 12.9891 25.6959 12.9375L27.2726 12.8391V13.3547C27.2726 14.2078 26.5452 14.8172 25.5833 14.8172ZM30.393 18.3141C31.7772 18.3141 32.4295 17.7844 32.9973 16.1859L35.4889 9.20156H34.0437L32.3732 14.5969H32.345L30.6745 9.20156H29.1917L31.5942 15.8531L31.4629 16.2563C31.247 16.9406 30.8951 17.2078 30.2663 17.2078C30.1537 17.2078 29.9378 17.1937 29.8487 17.1844V18.2812C29.9331 18.3 30.2851 18.3141 30.393 18.3141Z" fill="#10131D"/>
</svg>
