<svg width="74" height="24" viewBox="0 0 74 24" fill="none" xmlns="http://www.w3.org/2000/svg">
<g clip-path="url(#clip0_150_395)">
<path d="M70.8682 14.6672L72.8973 16.0199C72.2387 16.9899 70.6636 18.6542 67.9403 18.6542C64.5586 18.6542 62.0402 16.0378 62.0402 12.7094C62.0402 9.16751 64.5853 6.76465 67.6556 6.76465C70.7436 6.76465 72.2564 9.22079 72.746 10.5468L73.013 11.2232L65.057 14.5159C65.6622 15.7085 66.6056 16.3136 67.9403 16.3136C69.2753 16.3136 70.2007 15.6551 70.8682 14.6672ZM64.6299 12.5226L69.9427 10.3155C69.649 9.57693 68.777 9.05193 67.7356 9.05193C66.4097 9.05193 64.5676 10.2266 64.6299 12.5226Z" fill="#FF302F"/>
<path d="M58.2046 0.704244H60.7674V18.1114H58.2046V0.704102V0.704244Z" fill="#20B15A"/>
<path d="M54.1642 7.22743H56.6382V17.7999C56.6382 22.1871 54.0485 23.9937 50.9871 23.9937C48.1038 23.9937 46.3685 22.0537 45.7188 20.4786L47.9881 19.5351C48.3974 20.5051 49.3852 21.6533 50.9871 21.6533C52.9538 21.6533 54.1642 20.434 54.1642 18.1559V17.3016H54.0752C53.4878 18.0134 52.3665 18.6541 50.9427 18.6541C47.9702 18.6541 45.2469 16.0644 45.2469 12.7273C45.2469 9.37215 47.9702 6.75586 50.9427 6.75586C52.3577 6.75586 53.4878 7.38772 54.0752 8.08186H54.1642V7.22757V7.22743ZM54.3421 12.7273C54.3421 10.627 52.9449 9.09629 51.1651 9.09629C49.3674 9.09629 47.8545 10.627 47.8545 12.7273C47.8545 14.8007 49.3674 16.3047 51.1651 16.3047C52.9451 16.3137 54.3422 14.8007 54.3422 12.7273H54.3421Z" fill="#3686F7"/>
<path d="M31.1773 12.6831C31.1773 16.1093 28.5076 18.6278 25.2326 18.6278C21.9577 18.6278 19.2878 16.1005 19.2878 12.6831C19.2878 9.23906 21.9577 6.72949 25.2326 6.72949C28.5076 6.72949 31.1773 9.23906 31.1773 12.6831ZM28.5787 12.6831C28.5787 10.5473 27.0301 9.07878 25.2326 9.07878C23.435 9.07878 21.8864 10.5473 21.8864 12.6831C21.8864 14.8011 23.435 16.2873 25.2326 16.2873C27.0303 16.2873 28.5787 14.8011 28.5787 12.6831Z" fill="#FF302F"/>
<path d="M44.1614 12.7094C44.1614 16.1356 41.4915 18.6541 38.2167 18.6541C34.9417 18.6541 32.272 16.1355 32.272 12.7094C32.272 9.26536 34.9417 6.76465 38.2167 6.76465C41.4915 6.76465 44.1614 9.25651 44.1614 12.7094ZM41.5538 12.7094C41.5538 10.5736 40.0054 9.10508 38.2077 9.10508C36.4101 9.10508 34.8615 10.5736 34.8615 12.7094C34.8615 14.8274 36.4101 16.3136 38.2077 16.3136C40.0143 16.3136 41.5538 14.8185 41.5538 12.7094Z" fill="#FFBA40"/>
<path d="M9.51643 16.0466C5.78758 16.0466 2.86872 13.0386 2.86872 9.30976C2.86872 5.58105 5.78758 2.57305 9.51643 2.57305C11.5277 2.57305 12.996 3.36505 14.0817 4.37962L15.8706 2.59091C14.3577 1.14034 12.3376 0.0366211 9.51643 0.0366211C4.40829 0.036764 0.109863 4.20176 0.109863 9.30976C0.109863 14.418 4.40829 18.5829 9.51643 18.5829C12.2753 18.5829 14.3577 17.6752 15.9863 15.9843C17.6593 14.3112 18.1754 11.9618 18.1754 10.0573C18.1754 9.46105 18.1043 8.84705 18.0241 8.39319H9.51643V10.8672H15.5769C15.3989 12.4158 14.9094 13.4748 14.1886 14.1955C13.3164 15.0766 11.9371 16.0466 9.51643 16.0466Z" fill="#3686F7"/>
</g>
<defs>
<clipPath id="clip0_150_395">
<rect width="73.15" height="24" fill="white"/>
</clipPath>
</defs>
</svg>
