<svg width="43" height="24" viewBox="0 0 43 24" fill="none" xmlns="http://www.w3.org/2000/svg">
<rect x="0.5" y="0.5" width="42" height="23" stroke="#E1E1E1"/>
<path d="M13.0922 21.9558V20.6284C13.0922 20.1195 12.7821 19.7877 12.2505 19.7877C11.9848 19.7877 11.6968 19.8762 11.4975 20.1638C11.3425 19.9204 11.1211 19.7877 10.7889 19.7877C10.5673 19.7877 10.346 19.854 10.1687 20.0974V19.8319H9.70361V21.9558H10.1687V20.7832C10.1687 20.4072 10.3681 20.2301 10.6782 20.2301C10.9881 20.2301 11.1433 20.4293 11.1433 20.7832V21.9558H11.6084V20.7832C11.6084 20.4072 11.8297 20.2301 12.1176 20.2301C12.4278 20.2301 12.5827 20.4293 12.5827 20.7832V21.9558H13.0922ZM19.9799 19.8319H19.227V19.1904H18.7619V19.8319H18.3411V20.2522H18.7618V21.2258C18.7618 21.7125 18.9611 22.0001 19.4927 22.0001C19.6921 22.0001 19.9134 21.9338 20.0686 21.8453L19.9356 21.447C19.8027 21.5355 19.6478 21.5576 19.537 21.5576C19.3155 21.5576 19.227 21.4249 19.227 21.2036V20.2522H19.9799V19.8319ZM23.9222 19.7876C23.6564 19.7876 23.4793 19.9204 23.3685 20.0974V19.8319H22.9034V21.9558H23.3685V20.7611C23.3685 20.4072 23.5235 20.2081 23.8114 20.2081C23.9 20.2081 24.0107 20.2302 24.0993 20.2523L24.2322 19.8099C24.1436 19.7877 24.0107 19.7877 23.9222 19.7877V19.7876ZM17.9646 20.0089C17.743 19.854 17.433 19.7877 17.1008 19.7877C16.5693 19.7877 16.215 20.0532 16.215 20.4735C16.215 20.8276 16.4807 21.0266 16.9458 21.093L17.1673 21.1152C17.4109 21.1593 17.5438 21.2258 17.5438 21.3364C17.5438 21.4912 17.3666 21.6019 17.0565 21.6019C16.7465 21.6019 16.5028 21.4912 16.3477 21.3807L16.1263 21.7346C16.3699 21.9116 16.7022 22.0001 17.0343 22.0001C17.6544 22.0001 18.0089 21.7125 18.0089 21.3142C18.0089 20.9381 17.7209 20.739 17.2779 20.6727L17.0565 20.6505C16.8571 20.6283 16.7022 20.5842 16.7022 20.4514C16.7022 20.2965 16.8571 20.2081 17.1008 20.2081C17.3666 20.2081 17.6323 20.3186 17.7652 20.385L17.9646 20.0089ZM30.3228 19.7877C30.0569 19.7877 29.8798 19.9204 29.769 20.0974V19.8319H29.3039V21.9558H29.769V20.7611C29.769 20.4072 29.9241 20.2081 30.2119 20.2081C30.3006 20.2081 30.4113 20.2302 30.4999 20.2523L30.6328 19.8099C30.5442 19.7877 30.4113 19.7877 30.3228 19.7877ZM24.3873 20.8939C24.3873 21.5355 24.8302 22.0001 25.5168 22.0001C25.8268 22.0001 26.0483 21.9338 26.2697 21.7568L26.0483 21.3807C25.8711 21.5134 25.6939 21.5797 25.4946 21.5797C25.1181 21.5797 24.8523 21.3142 24.8523 20.8939C24.8523 20.4957 25.1181 20.2301 25.4946 20.2081C25.6939 20.2081 25.8711 20.2744 26.0483 20.4072L26.2697 20.0311C26.0483 19.854 25.8268 19.7877 25.5168 19.7877C24.8302 19.7877 24.3873 20.2523 24.3873 20.8939ZM28.6838 20.8939V19.8319H28.2188V20.0974C28.0637 19.8984 27.8422 19.7877 27.5543 19.7877C26.9564 19.7877 26.4913 20.2523 26.4913 20.8939C26.4913 21.5355 26.9564 22.0001 27.5543 22.0001C27.8643 22.0001 28.0859 21.8895 28.2188 21.6904V21.9558H28.6838V20.8939ZM26.9784 20.8939C26.9784 20.5178 27.2221 20.2081 27.6207 20.2081C27.9972 20.2081 28.263 20.4957 28.263 20.8939C28.263 21.27 27.9972 21.5797 27.6207 21.5797C27.2221 21.5575 26.9784 21.27 26.9784 20.8939ZM21.4196 19.7877C20.7994 19.7877 20.3564 20.2301 20.3564 20.8939C20.3564 21.5576 20.7993 22.0001 21.4417 22.0001C21.7517 22.0001 22.0618 21.9116 22.3054 21.7125L22.0839 21.3807C21.9067 21.5134 21.6853 21.6019 21.4638 21.6019C21.1759 21.6019 20.888 21.4691 20.8215 21.0929H22.394V20.9161C22.4162 20.2301 22.0175 19.7877 21.4195 19.7877H21.4196ZM21.4196 20.1859C21.7074 20.1859 21.9068 20.363 21.951 20.6948H20.8437C20.888 20.4072 21.0873 20.1859 21.4196 20.1859ZM32.9582 20.8939V18.9912H32.4931V20.0974C32.3381 19.8984 32.1166 19.7877 31.8287 19.7877C31.2307 19.7877 30.7657 20.2523 30.7657 20.8939C30.7657 21.5355 31.2307 22.0001 31.8287 22.0001C32.1388 22.0001 32.3603 21.8895 32.4931 21.6904V21.9558H32.9582V20.8939ZM31.2529 20.8939C31.2529 20.5178 31.4965 20.2081 31.8952 20.2081C32.2717 20.2081 32.5374 20.4957 32.5374 20.8939C32.5374 21.27 32.2717 21.5797 31.8952 21.5797C31.4965 21.5575 31.2529 21.27 31.2529 20.8939ZM15.7055 20.8939V19.8319H15.2404V20.0974C15.0853 19.8984 14.8639 19.7877 14.576 19.7877C13.978 19.7877 13.5129 20.2523 13.5129 20.8939C13.5129 21.5355 13.978 22.0001 14.576 22.0001C14.8861 22.0001 15.1075 21.8895 15.2404 21.6904V21.9558H15.7055V20.8939ZM13.978 20.8939C13.978 20.5178 14.2216 20.2081 14.6203 20.2081C14.9968 20.2081 15.2626 20.4957 15.2626 20.8939C15.2626 21.27 14.9968 21.5797 14.6203 21.5797C14.2216 21.5575 13.978 21.27 13.978 20.8939Z" fill="black"/>
<path d="M17.8094 3.70312H24.7858V16.2254H17.8094V3.70312Z" fill="#FF5F00"/>
<path d="M18.2524 9.96473C18.2524 7.42048 19.4483 5.16376 21.2865 3.70352C19.9356 2.64158 18.2303 2 16.37 2C11.9625 2 8.39685 5.56195 8.39685 9.96473C8.39685 14.3674 11.9625 17.9295 16.3699 17.9295C18.2302 17.9295 19.9355 17.2879 21.2865 16.2258C19.4483 14.7878 18.2524 12.509 18.2524 9.96473Z" fill="#EB001B"/>
<path d="M34.1983 9.96473C34.1983 14.3674 30.6326 17.9295 26.2252 17.9295C24.3649 17.9295 22.6596 17.2879 21.3086 16.2258C23.169 14.7657 24.3428 12.509 24.3428 9.96473C24.3428 7.42048 23.1468 5.16376 21.3086 3.70352C22.6595 2.64158 24.3649 2 26.2252 2C30.6326 2 34.1984 5.58412 34.1984 9.96473H34.1983Z" fill="#F79E1B"/>
</svg>
