<svg width="16" height="16" viewBox="0 0 16 16" fill="none" xmlns="http://www.w3.org/2000/svg">
<path d="M2 10C3.65533 10 4.89667 8 4.89667 8C4.89667 8 6.138 10 7.79333 10C9.448 10 11.1033 8 11.1033 8C11.1033 8 12.7587 10 14 10M2 13.3333C3.65533 13.3333 4.89667 11.3333 4.89667 11.3333C4.89667 11.3333 6.138 13.3333 7.79333 13.3333C9.448 13.3333 11.1033 11.3333 11.1033 11.3333C11.1033 11.3333 12.7587 13.3333 14 13.3333M12.6667 6.66667C12.6667 6.05383 12.546 5.447 12.3114 4.88081C12.0769 4.31462 11.7332 3.80018 11.2998 3.36683C10.8665 2.93349 10.352 2.58975 9.78586 2.35523C9.21967 2.12071 8.61284 2 8 2C7.38716 2 6.78033 2.12071 6.21414 2.35523C5.64796 2.58975 5.13351 2.93349 4.70017 3.36683C4.26683 3.80018 3.92308 4.31462 3.68856 4.88081C3.45404 5.447 3.33333 6.05383 3.33333 6.66667" stroke="#10131D" stroke-linecap="round" stroke-linejoin="round"/>
</svg>
