<svg width="14" height="11" viewBox="0 0 14 11" fill="none" xmlns="http://www.w3.org/2000/svg">
<path d="M3 2.5C3 2.30302 3.0388 2.10796 3.11418 1.92597C3.18956 1.74399 3.30005 1.57863 3.43934 1.43934C3.57863 1.30005 3.74399 1.18956 3.92597 1.11418C4.10796 1.0388 4.30302 1 4.5 1C4.69698 1 4.89204 1.0388 5.07403 1.11418C5.25601 1.18956 5.42137 1.30005 5.56066 1.43934C5.69995 1.57863 5.81044 1.74399 5.88582 1.92597C5.9612 2.10796 6 2.30302 6 2.5C6 2.89782 5.84196 3.27936 5.56066 3.56066C5.27936 3.84196 4.89782 4 4.5 4C4.10218 4 3.72064 3.84196 3.43934 3.56066C3.15804 3.27936 3 2.89782 3 2.5ZM4.5 0C3.83696 0 3.20107 0.263392 2.73223 0.732233C2.26339 1.20107 2 1.83696 2 2.5C2 3.16304 2.26339 3.79893 2.73223 4.26777C3.20107 4.73661 3.83696 5 4.5 5C5.16304 5 5.79893 4.73661 6.26777 4.26777C6.73661 3.79893 7 3.16304 7 2.5C7 1.83696 6.73661 1.20107 6.26777 0.732233C5.79893 0.263392 5.16304 0 4.5 0ZM9.5 3C9.5 2.73478 9.60536 2.48043 9.79289 2.29289C9.98043 2.10536 10.2348 2 10.5 2C10.7652 2 11.0196 2.10536 11.2071 2.29289C11.3946 2.48043 11.5 2.73478 11.5 3C11.5 3.26522 11.3946 3.51957 11.2071 3.70711C11.0196 3.89464 10.7652 4 10.5 4C10.2348 4 9.98043 3.89464 9.79289 3.70711C9.60536 3.51957 9.5 3.26522 9.5 3ZM10.5 1C9.96957 1 9.46086 1.21071 9.08579 1.58579C8.71071 1.96086 8.5 2.46957 8.5 3C8.5 3.53043 8.71071 4.03914 9.08579 4.41421C9.46086 4.78929 9.96957 5 10.5 5C11.0304 5 11.5391 4.78929 11.9142 4.41421C12.2893 4.03914 12.5 3.53043 12.5 3C12.5 2.46957 12.2893 1.96086 11.9142 1.58579C11.5391 1.21071 11.0304 1 10.5 1ZM0.5 7.5C0.5 7.10218 0.658035 6.72064 0.93934 6.43934C1.22064 6.15804 1.60218 6 2 6H7C7.39782 6 7.77936 6.15804 8.06066 6.43934C8.34196 6.72064 8.5 7.10218 8.5 7.5V7.612C8.49894 7.6578 8.49561 7.70353 8.49 7.749C8.43301 8.23379 8.25259 8.69586 7.966 9.091C7.419 9.846 6.379 10.5 4.5 10.5C2.622 10.5 1.582 9.846 1.033 9.091C0.746761 8.69576 0.56669 8.2337 0.51 7.749C0.505022 7.70347 0.501686 7.65777 0.5 7.612V7.5ZM1.5 7.59V7.597L1.504 7.646C1.54273 7.95556 1.65899 8.25034 1.842 8.503C2.168 8.951 2.878 9.5 4.5 9.5C6.122 9.5 6.832 8.951 7.158 8.503C7.34101 8.25034 7.45727 7.95556 7.496 7.646C7.49779 7.62937 7.49913 7.6127 7.5 7.596V7.5C7.5 7.36739 7.44732 7.24021 7.35355 7.14645C7.25979 7.05268 7.13261 7 7 7H2C1.86739 7 1.74021 7.05268 1.64645 7.14645C1.55268 7.24021 1.5 7.36739 1.5 7.5V7.59ZM10.5 9.5C9.912 9.5 9.43 9.41 9.04 9.262C9.20032 8.96834 9.32167 8.65503 9.401 8.33C9.669 8.431 10.025 8.5 10.5 8.5C11.619 8.5 12.078 8.118 12.28 7.834C12.3981 7.66835 12.473 7.47588 12.498 7.274L12.5 7.246C12.499 7.18039 12.4721 7.11783 12.4254 7.0718C12.3786 7.02578 12.3156 6.99999 12.25 7H9.45C9.37617 6.63737 9.22245 6.29575 9 6H12.25C12.94 6 13.5 6.56 13.5 7.25V7.267C13.4988 7.30343 13.4961 7.33979 13.492 7.376C13.4496 7.7508 13.3127 8.10867 13.094 8.416C12.672 9.007 11.881 9.5 10.5 9.5Z" fill="#10131D"/>
</svg>
