<svg width="16" height="16" viewBox="0 0 16 16" fill="none" xmlns="http://www.w3.org/2000/svg">
<path d="M14.6668 14.0001C13.9268 14.0001 13.5135 13.7534 13.2135 13.5734C12.9668 13.4268 12.8135 13.3334 12.4468 13.3334C12.0735 13.3334 11.9268 13.4201 11.6802 13.5734C11.3735 13.7534 10.9668 14.0001 10.2268 14.0001C9.48683 14.0001 9.0735 13.7534 8.7735 13.5734C8.52683 13.4268 8.3735 13.3334 8.00683 13.3334C7.6335 13.3334 7.48683 13.4201 7.24016 13.5734C6.9335 13.7534 6.52016 14.0001 5.78016 14.0001C5.04016 14.0001 4.62683 13.7534 4.32683 13.5734C4.08016 13.4201 3.92683 13.3334 3.56016 13.3334C3.1935 13.3334 3.04016 13.4201 2.7935 13.5734C2.48683 13.7534 2.0735 14.0001 1.3335 14.0001V12.6668C1.70683 12.6668 1.8535 12.5801 2.10016 12.4268C2.40683 12.2468 2.82016 12.0001 3.56016 12.0001C4.30016 12.0001 4.7135 12.2468 5.0135 12.4268C5.26016 12.5801 5.40683 12.6668 5.78016 12.6668C6.1535 12.6668 6.30016 12.5801 6.54683 12.4268C6.8535 12.2468 7.26683 12.0001 8.00683 12.0001C8.74683 12.0001 9.16016 12.2468 9.46016 12.4268C9.70683 12.5734 9.86016 12.6668 10.2268 12.6668C10.5935 12.6668 10.7468 12.5801 10.9935 12.4268C11.2935 12.2468 11.7068 12.0001 12.4468 12.0001C13.1868 12.0001 13.6002 12.2468 13.9002 12.4268C14.1468 12.5801 14.2935 12.6668 14.6668 12.6668V14.0001ZM14.6668 11.0001C13.9268 11.0001 13.5135 10.7534 13.2135 10.5734C12.9668 10.4268 12.8135 10.3334 12.4468 10.3334C12.0735 10.3334 11.9268 10.4201 11.6802 10.5734C11.3802 10.7534 10.9668 11.0001 10.2268 11.0001C9.48683 11.0001 9.0735 10.7534 8.7735 10.5734C8.52683 10.4268 8.3735 10.3334 8.00683 10.3334C7.6335 10.3334 7.48683 10.4201 7.24016 10.5734C6.94016 10.7534 6.52683 11.0001 5.78683 11.0001C5.04683 11.0001 4.6335 10.7534 4.3335 10.5734C4.08683 10.4268 3.9335 10.3334 3.56683 10.3334C3.20016 10.3334 3.04683 10.4201 2.80016 10.5734C2.48683 10.7534 2.0735 11.0001 1.3335 11.0001V9.66677C1.70683 9.66677 1.8535 9.58011 2.10016 9.42677C2.40016 9.24677 2.8135 9.00011 3.5535 9.00011C4.2935 9.00011 4.70683 9.24677 5.00683 9.42677C5.2535 9.57344 5.40683 9.66677 5.7735 9.66677C6.14683 9.66677 6.2935 9.58011 6.54016 9.42677C6.84016 9.24677 7.2535 9.00011 7.9935 9.00011C8.7335 9.00011 9.14683 9.24677 9.44683 9.42677C9.6935 9.57344 9.84683 9.66677 10.2135 9.66677C10.5802 9.66677 10.7335 9.58011 10.9802 9.42677C11.2802 9.24677 11.6935 9.00011 12.4335 9.00011C13.1735 9.00011 13.5868 9.24677 13.8868 9.42677C14.1335 9.57344 14.2868 9.66677 14.6535 9.66677V11.0001H14.6668ZM5.78016 8.00011C6.1535 8.00011 6.30016 7.91344 6.54683 7.76011C6.8535 7.58011 7.26683 7.33344 8.00683 7.33344C8.74683 7.33344 9.16016 7.58011 9.46016 7.76011C9.70683 7.90677 9.86016 8.00011 10.2268 8.00011C10.5935 8.00011 10.7468 7.91344 10.9935 7.76011C11.0735 7.71344 11.1668 7.66011 11.2668 7.60677L6.98683 3.33344C5.9535 2.30011 5.00016 1.99344 3.3335 2.00011V3.66677C4.54683 3.66011 5.26016 3.92677 6.00016 4.66677L6.66683 5.33344L4.50016 7.50011C4.70683 7.58011 4.8735 7.68011 5.0135 7.76011C5.26016 7.91344 5.40683 8.00011 5.78016 8.00011Z" fill="#10131D"/>
<path d="M11.0002 5.33333C11.9206 5.33333 12.6668 4.58714 12.6668 3.66667C12.6668 2.74619 11.9206 2 11.0002 2C10.0797 2 9.3335 2.74619 9.3335 3.66667C9.3335 4.58714 10.0797 5.33333 11.0002 5.33333Z" fill="#10131D"/>
</svg>
