<svg width="16" height="16" viewBox="0 0 16 16" fill="none" xmlns="http://www.w3.org/2000/svg">
<path d="M1.6665 8V13.3333C1.6665 13.5101 1.73674 13.6797 1.86177 13.8047C1.98679 13.9298 2.15636 14 2.33317 14H13.6665C13.8433 14 14.0129 13.9298 14.1379 13.8047C14.2629 13.6797 14.3332 13.5101 14.3332 13.3333V8M14.3332 10.3333H1.6665" stroke="#10131D" stroke-width="1.33333" stroke-linecap="round" stroke-linejoin="round"/>
<path d="M10.6663 7.66667C10.6663 6.95942 10.3854 6.28115 9.88529 5.78105C9.3852 5.28095 8.70692 5 7.99967 5C7.29243 5 6.61415 5.28095 6.11406 5.78105C5.61396 6.28115 5.33301 6.95942 5.33301 7.66667" stroke="#10131D" stroke-width="1.33333" stroke-linecap="round"/>
<path d="M8 2V2.66667M11.8047 3.33333L11.3333 3.80467M4 3.33333L4.47133 3.80467" stroke="#10131D" stroke-width="1.33333" stroke-linecap="round" stroke-linejoin="round"/>
</svg>
