<svg width="14" height="14" viewBox="0 0 14 14" fill="none" xmlns="http://www.w3.org/2000/svg">
<path d="M0.666504 7V12.3333C0.666504 12.5101 0.736742 12.6797 0.861766 12.8047C0.98679 12.9298 1.15636 13 1.33317 13H12.6665C12.8433 13 13.0129 12.9298 13.1379 12.8047C13.2629 12.6797 13.3332 12.5101 13.3332 12.3333V7M13.3332 9.33333H0.666504" stroke="#10131D" stroke-width="1.33333" stroke-linecap="round" stroke-linejoin="round"/>
<path d="M9.66634 6.66667C9.66634 5.95942 9.38539 5.28115 8.88529 4.78105C8.3852 4.28095 7.70692 4 6.99967 4C6.29243 4 5.61415 4.28095 5.11406 4.78105C4.61396 5.28115 4.33301 5.95942 4.33301 6.66667" stroke="#10131D" stroke-width="1.33333" stroke-linecap="round"/>
<path d="M7 1V1.66667M10.8047 2.33333L10.3333 2.80467M3 2.33333L3.47133 2.80467" stroke="#10131D" stroke-width="1.33333" stroke-linecap="round" stroke-linejoin="round"/>
</svg>
