<svg width="12" height="16" viewBox="0 0 12 16" fill="none" xmlns="http://www.w3.org/2000/svg">
<path d="M5.99984 14.6666C5.99984 14.6666 11.3332 10.6666 11.3332 6.33325C11.3332 3.57192 8.9455 1.33325 5.99984 1.33325C3.05417 1.33325 0.666504 3.57192 0.666504 6.33325C0.666504 10.6666 5.99984 14.6666 5.99984 14.6666Z" stroke="#10131D" stroke-width="1.33333" stroke-linejoin="round"/>
<path d="M5 4.6665V9.99984" stroke="#10131D" stroke-width="1.33333" stroke-linecap="round" stroke-linejoin="round"/>
<path d="M5 4.6665H7C7.35362 4.6665 7.69276 4.80698 7.94281 5.05703C8.19286 5.30708 8.33333 5.64622 8.33333 5.99984C8.33333 6.35346 8.19286 6.6926 7.94281 6.94265C7.69276 7.19269 7.35362 7.33317 7 7.33317H5V4.6665Z" stroke="#10131D" stroke-width="1.33333" stroke-linejoin="round"/>
</svg>
