<svg width="12" height="13" viewBox="0 0 12 13" fill="none" xmlns="http://www.w3.org/2000/svg">
<path d="M1.33333 13.0001C0.966667 13.0001 0.652667 12.8697 0.391333 12.6088C0.130444 12.3474 0 12.0334 0 11.6668V5.0001C0 4.63343 0.130444 4.31943 0.391333 4.0581C0.652667 3.79721 0.966667 3.66676 1.33333 3.66676H4V2.88343C4 2.79454 4.00844 2.70854 4.02533 2.62543C4.04178 2.54188 4.06667 2.46121 4.1 2.38343C4.13333 2.30565 4.17222 2.23054 4.21667 2.1581C4.26111 2.0861 4.31667 2.01676 4.38333 1.9501L5.53333 0.800098C5.66667 0.666764 5.82222 0.600098 6 0.600098C6.17778 0.600098 6.33333 0.666764 6.46667 0.800098L7.61667 1.9501C7.73889 2.07232 7.83333 2.21388 7.9 2.37476C7.96667 2.5361 8 2.70565 8 2.88343V6.33343H10.6667C11.0333 6.33343 11.3473 6.46388 11.6087 6.72476C11.8696 6.9861 12 7.3001 12 7.66676V11.6668C12 12.0334 11.8696 12.3474 11.6087 12.6088C11.3473 12.8697 11.0333 13.0001 10.6667 13.0001H1.33333ZM1.33333 11.6668H2.66667V10.3334H1.33333V11.6668ZM1.33333 9.0001H2.66667V7.66676H1.33333V9.0001ZM1.33333 6.33343H2.66667V5.0001H1.33333V6.33343ZM5.33333 11.6668H6.66667V10.3334H5.33333V11.6668ZM5.33333 9.0001H6.66667V7.66676H5.33333V9.0001ZM5.33333 6.33343H6.66667V5.0001H5.33333V6.33343ZM5.33333 3.66676H6.66667V2.33343H5.33333V3.66676ZM9.33333 11.6668H10.6667V10.3334H9.33333V11.6668ZM9.33333 9.0001H10.6667V7.66676H9.33333V9.0001Z" fill="#10131D"/>
</svg>
