<svg width="14" height="15" viewBox="0 0 14 15" fill="none" xmlns="http://www.w3.org/2000/svg">
<path d="M7 0.5C5.61553 0.5 4.26216 0.910543 3.11101 1.67971C1.95987 2.44888 1.06266 3.54213 0.532846 4.82122C0.00303298 6.1003 -0.13559 7.50776 0.134506 8.86563C0.404603 10.2235 1.07129 11.4708 2.05026 12.4497C3.02922 13.4287 4.2765 14.0954 5.63437 14.3655C6.99224 14.6356 8.3997 14.497 9.67879 13.9672C10.9579 13.4373 12.0511 12.5401 12.8203 11.389C13.5895 10.2378 14 8.88447 14 7.5C13.9979 5.64413 13.2597 3.86489 11.9474 2.55259C10.6351 1.2403 8.85587 0.502117 7 0.5ZM4 12.6885V12C4.0004 11.6023 4.15856 11.221 4.43978 10.9398C4.721 10.6586 5.1023 10.5004 5.5 10.5H8.5C8.89771 10.5004 9.27901 10.6586 9.56022 10.9398C9.84144 11.221 9.99961 11.6023 10 12V12.6885C9.08959 13.2201 8.05426 13.5002 7 13.5002C5.94574 13.5002 4.91042 13.2201 4 12.6885ZM10.996 11.963C10.986 11.3072 10.7188 10.6815 10.252 10.2208C9.78508 9.76009 9.15591 9.50124 8.5 9.5H5.5C4.84409 9.50124 4.21492 9.76009 3.74805 10.2208C3.28117 10.6815 3.01397 11.3072 3.004 11.963C2.09729 11.1534 1.45787 10.0874 1.17042 8.90633C0.882972 7.72523 0.961053 6.48467 1.39432 5.34893C1.82759 4.21319 2.59561 3.23583 3.59669 2.54628C4.59776 1.85673 5.78467 1.48751 7.00025 1.48751C8.21583 1.48751 9.40274 1.85673 10.4038 2.54628C11.4049 3.23583 12.1729 4.21319 12.6062 5.34893C13.0395 6.48467 13.1175 7.72523 12.8301 8.90633C12.5426 10.0874 11.9032 11.1534 10.9965 11.963H10.996Z" fill="#10131D"/>
</svg>
